<svg xmlns="http://www.w3.org/2000/svg" width="980" height="300" viewBox="0 0 980 300">
<defs>
<linearGradient id="g" x1="0" x2="1" y1="0" y2="1">
<stop offset="0" stop-color="#fff3b0"/><stop offset=".45" stop-color="#d4af37"/><stop offset="1" stop-color="#7b5b16"/>
</linearGradient>
<filter id="glow"><feGaussianBlur stdDeviation="5" result="b"/><feMerge><feMergeNode in="b"/><feMergeNode in="SourceGraphic"/></feMerge></filter>
</defs>
<rect width="980" height="300" rx="42" fill="#06130d"/>
<rect x="14" y="14" width="952" height="272" rx="34" fill="none" stroke="url(#g)" stroke-width="5"/>
<g filter="url(#glow)">
<path d="M105 205 C60 152 78 70 155 54 C222 41 259 95 241 148 C226 192 177 219 105 205Z" fill="#0f5d3b" stroke="url(#g)" stroke-width="5"/>
<path d="M151 78 C151 78 192 111 192 152 C192 184 163 201 130 194 C162 174 166 147 151 78Z" fill="url(#g)" opacity=".85"/>
<circle cx="161" cy="144" r="21" fill="#fff3b0" opacity=".9"/>
</g>
<text x="300" y="122" font-family="Georgia, serif" font-size="48" font-weight="700" fill="url(#g)">Sullivan’s Innovative</text>
<text x="300" y="178" font-family="Arial, sans-serif" font-size="28" letter-spacing="5" fill="#fff8e7">MARKETING OS</text>
<text x="302" y="220" font-family="Arial, sans-serif" font-size="18" fill="#cfc4a2">Luxury campaign intelligence • research • creative • optimization</text>
</svg>