<svg xmlns="http://www.w3.org/2000/svg" width="2200" height="1400" viewBox="0 0 2200 1400">
<defs>
<radialGradient id="base" cx="50%" cy="42%" r="80%"><stop offset="0%" stop-color="#14583b"/><stop offset="35%" stop-color="#092719"/><stop offset="72%" stop-color="#06110b"/><stop offset="100%" stop-color="#020504"/></radialGradient>
<radialGradient id="cloudGold" cx="50%" cy="50%" r="50%"><stop offset="0%" stop-color="#fff4b8" stop-opacity=".85"/><stop offset="38%" stop-color="#d4af37" stop-opacity=".38"/><stop offset="100%" stop-color="#d4af37" stop-opacity="0"/></radialGradient>
<radialGradient id="cloudGreen" cx="50%" cy="50%" r="50%"><stop offset="0%" stop-color="#33e29a" stop-opacity=".40"/><stop offset="50%" stop-color="#0c6a44" stop-opacity=".28"/><stop offset="100%" stop-color="#0c6a44" stop-opacity="0"/></radialGradient>
<linearGradient id="gold" x1="0" x2="1" y1="0" y2="1"><stop offset="0%" stop-color="#fff8cf"/><stop offset="45%" stop-color="#d4af37"/><stop offset="100%" stop-color="#7a5a14"/></linearGradient>
<filter id="blur"><feGaussianBlur stdDeviation="45"/></filter>
</defs>
<rect width="2200" height="1400" fill="url(#base)"/>
<circle cx="350" cy="230" r="360" fill="url(#cloudGold)" filter="url(#blur)"/>
<circle cx="1730" cy="260" r="430" fill="url(#cloudGreen)" filter="url(#blur)"/>
<circle cx="1070" cy="1110" r="560" fill="url(#cloudGold)" opacity=".65" filter="url(#blur)"/>
<circle cx="1900" cy="1010" r="330" fill="#fff" opacity=".06" filter="url(#blur)"/>
<g opacity=".30" fill="none" stroke="url(#gold)" stroke-width="4">
<path d="M125 1030 C290 770 475 780 650 1010 C445 925 285 1125 125 1030Z"/>
<path d="M1850 175 C1660 370 1490 360 1330 155 C1510 240 1700 15 1850 175Z"/>
<path d="M1730 1010 C1925 795 2100 890 2165 1120 C1990 995 1890 1160 1730 1010Z"/>
<path d="M465 210 C665 10 820 110 880 330 C715 210 610 400 465 210Z"/>
</g>
</svg>